<?xml version="1.0" standalone="no"?>
<!DOCTYPE svg PUBLIC "-//W3C//DTD SVG 20010904//EN"
 "http://www.w3.org/TR/2001/REC-SVG-20010904/DTD/svg10.dtd">
<svg version="1.0" xmlns="http://www.w3.org/2000/svg"
 width="300.000000pt" height="300.000000pt" viewBox="0 0 300.000000 300.000000"
 preserveAspectRatio="xMidYMid meet">
<metadata>
Created by potrace 1.10, written by Peter Selinger 2001-2011
</metadata>
<g transform="translate(0.000000,300.000000) scale(0.050000,-0.050000)"
fill="#000000" stroke="none">
<path d="M2930 5185 c-165 -15 -193 -25 -179 -68 13 -41 9 -41 -164 -28 -244
19 -517 -83 -734 -275 -69 -62 -39 -53 57 17 171 124 390 209 538 209 l102 -1
-180 -61 c-99 -33 -252 -99 -340 -146 -186 -100 -251 -133 -359 -185 -403
-189 -620 -860 -464 -1430 27 -98 28 -131 5 -240 -58 -282 26 -500 285 -743
98 -91 133 -107 252 -119 112 -10 116 -155 4 -155 -90 0 -335 -176 -365 -263
-19 -55 -43 -72 -170 -121 -81 -32 -166 -68 -188 -80 -22 -13 -127 -70 -234
-127 -358 -192 -587 -387 -725 -618 l-71 -119 0 -316 0 -316 690 0 c539 0 690
5 690 25 -3 567 -571 1085 -985 899 -178 -80 -46 69 150 168 375 190 793 -219
968 -947 l35 -145 956 0 c526 0 956 7 956 16 0 9 -11 27 -25 41 -20 20 -18 23
10 12 44 -17 44 6 -1 114 -79 192 -25 218 176 84 138 -91 140 -94 140 -180 0
-83 3 -87 60 -87 58 0 59 2 50 85 -6 47 -19 170 -31 273 -22 197 -98 432 -235
721 -92 194 -94 184 46 212 159 31 353 -30 525 -166 195 -155 591 -763 684
-1050 19 -59 34 -75 72 -75 44 0 46 5 28 54 -102 266 -476 882 -646 1062 -95
101 -200 154 -431 217 -15 5 21 32 80 61 284 140 455 431 473 805 10 191 15
216 61 261 69 69 138 228 155 359 8 60 24 126 36 146 18 29 16 43 -8 61 -17
13 -51 53 -75 88 -25 35 -75 82 -111 104 -64 40 -68 48 -80 197 -7 85 -23 190
-35 233 -18 66 -17 81 10 96 40 22 40 113 1 165 -37 49 -38 93 -1 79 204 -78
-315 657 -587 831 -56 36 -96 73 -90 83 75 121 -453 312 -781 283z m392 -113
c110 -34 250 -103 268 -132 19 -31 -9 -25 -191 42 -122 45 -217 65 -344 73
-138 8 -175 17 -175 41 0 38 297 22 442 -24z m202 -767 c17 -19 64 -107 105
-195 103 -224 101 -219 145 -226 58 -9 85 36 112 185 l25 133 41 -46 c22 -25
80 -100 129 -166 49 -66 104 -133 122 -150 50 -46 170 -530 136 -551 -17 -10
-31 3 -100 95 -93 125 -370 213 -355 113 6 -46 22 -58 146 -110 l80 -33 -106
-17 c-133 -21 -251 -81 -305 -154 -42 -56 -42 -57 -131 -27 -65 21 -108 24
-154 10 -60 -17 -69 -13 -141 68 -127 143 -166 156 -463 155 -360 -2 -530 -91
-530 -277 0 -20 -21 -29 -65 -28 -36 1 -144 -7 -241 -17 -159 -17 -221 -8
-186 28 7 6 111 19 233 28 121 8 230 22 242 29 47 29 -38 47 -168 35 -160 -15
-156 -26 -88 248 51 204 51 203 107 214 22 4 88 33 148 65 l108 57 5 109 c8
161 20 200 64 200 21 0 96 50 167 110 178 153 180 151 171 -105 -10 -287 58
-307 291 -87 138 130 393 342 413 342 7 0 26 -16 43 -35z m-463 -1006 c369
-97 221 -760 -182 -814 -262 -35 -449 122 -519 435 -75 340 228 504 701 379z
m1262 -70 c51 -17 127 -61 170 -98 l77 -66 -1 -168 c-1 -200 -101 -433 -152
-352 -50 78 -19 293 48 327 109 56 122 119 18 89 -149 -43 -149 -42 -139 -284
l9 -220 -55 -28 c-254 -132 -555 88 -591 431 -36 345 220 498 616 369z m-2741
-112 c152 -52 213 -116 249 -262 52 -212 78 -204 104 35 l15 140 140 0 c188 0
184 3 200 -126 39 -316 246 -507 549 -503 242 3 521 257 521 475 0 52 10 66
55 78 125 32 174 -1 177 -121 9 -327 366 -572 706 -486 l68 18 -11 -178 c-37
-561 -333 -800 -981 -794 -746 8 -1194 220 -1425 675 -95 188 -96 189 -142
158 -171 -112 -499 238 -522 556 -21 284 88 406 297 335z m2008 -17 c93 -35
46 -65 -106 -68 -157 -3 -198 31 -79 66 88 25 123 26 185 2z m-1770 -1206 c0
-359 455 -1061 845 -1305 116 -72 116 -69 3 -174 -199 -183 -472 -355 -565
-355 -46 0 -303 714 -303 840 0 93 -198 555 -285 663 -71 89 -66 134 22 187
37 22 95 64 130 94 51 44 153 77 153 50z m313 -257 c295 -223 736 -377 1077
-377 157 0 155 13 29 -266 -56 -123 -120 -264 -142 -314 -22 -49 -53 -110 -68
-134 l-28 -44 -156 94 c-379 229 -706 629 -856 1046 -79 221 -80 236 -13 148
33 -44 104 -113 157 -153z m1435 -646 c161 -407 229 -671 175 -671 -13 0 -78
44 -145 98 -66 54 -160 119 -208 144 l-87 46 -93 -86 c-114 -105 -134 -95 -51
27 82 119 107 180 182 453 35 126 68 236 74 246 19 31 80 -71 153 -257z m-228
-527 c0 -9 -44 -49 -97 -90 -54 -41 -140 -120 -192 -175 -52 -55 -89 -85 -84
-65 6 20 17 60 24 90 9 38 38 67 96 95 46 22 115 67 153 100 71 60 100 74 100
45z m-494 -303 c26 -24 -8 -81 -47 -81 -37 0 -119 72 -119 105 0 19 141 -2
166 -24z"/>
<path d="M2690 3578 c-232 -79 -212 -98 103 -98 233 0 287 6 308 32 84 100
-185 144 -411 66z"/>
<path d="M2737 3266 c-100 -115 -111 -485 -19 -584 112 -119 145 -62 156 268
10 302 -43 425 -137 316z"/>
<path d="M3928 3170 c-115 -176 -79 -590 52 -590 62 0 80 76 80 340 0 286 -48
378 -132 250z"/>
<path d="M1374 2996 c-38 -60 -58 -198 -35 -235 19 -30 61 45 61 109 0 68 62
95 112 48 l47 -44 -49 -46 c-54 -50 -67 -128 -22 -128 15 0 38 14 52 30 27 32
80 41 80 13 0 -9 -18 -33 -41 -54 -59 -53 -45 -137 24 -145 29 -3 69 -24 88
-45 36 -39 89 -53 89 -23 0 49 -69 218 -100 246 -23 20 -32 49 -26 81 26 138
-212 302 -280 193z"/>
<path d="M1400 2540 c0 -44 105 -120 165 -120 54 0 42 25 -35 75 -39 25 -70
54 -70 65 0 11 -13 20 -30 20 -17 0 -30 -18 -30 -40z"/>
<path d="M3069 2039 c-35 -58 62 -93 325 -118 277 -26 382 -11 358 51 -7 17
-12 35 -12 40 0 5 -43 4 -95 -3 -84 -11 -275 6 -487 43 -49 8 -78 4 -89 -13z"/>
<path d="M41 907 c-22 -29 -40 -76 -39 -105 1 -31 6 -40 12 -22 7 17 28 64 49
105 44 88 36 96 -22 22z"/>
</g>
</svg>
